<svg width="165" height="24" viewBox="0 0 165 24" fill="none" xmlns="http://www.w3.org/2000/svg">
<path d="M1.13867 0L10.3203 3.24058V20.5237L1.13867 23.7642V0Z" fill="white"/>
<path d="M12.4805 0L18.4215 3.24058V20.5237L12.4805 23.7642V0Z" fill="white"/>
<path d="M20.582 0L24.3627 3.24058V20.5237L20.582 23.7642V0Z" fill="white"/>
<path fill-rule="evenodd" clip-rule="evenodd" d="M135.149 5.91091C133.694 7.61889 132.967 9.66263 132.967 12.0421C132.967 14.7501 133.764 16.9398 135.359 18.6113C136.808 20.1222 138.442 20.8776 140.262 20.8776C142.319 20.8776 144.075 20.0273 145.53 18.3266C146.979 16.6332 147.703 14.5713 147.703 12.1407C147.703 9.72467 146.982 7.65539 145.539 5.93281C144.103 4.21023 142.38 3.34894 140.371 3.34894C138.338 3.34894 136.598 4.20293 135.149 5.91091ZM136.683 16.6843C135.636 15.48 135.112 13.9435 135.112 12.075C135.112 10.294 135.618 8.79769 136.628 7.58605C137.638 6.3598 138.877 5.74668 140.344 5.74668C141.817 5.74668 143.053 6.3598 144.051 7.58605C145.055 8.80499 145.557 10.3159 145.557 12.1188C145.557 13.8997 145.049 15.4106 144.033 16.6515C143.016 17.8777 141.768 18.4908 140.289 18.4908C138.926 18.4908 137.724 17.8887 136.683 16.6843Z" fill="white"/>
<path d="M135.149 5.91091L135.225 5.97575L135.225 5.97559L135.149 5.91091ZM135.359 18.6113L135.287 18.6803L135.287 18.6805L135.359 18.6113ZM145.53 18.3266L145.454 18.2616L145.454 18.2616L145.53 18.3266ZM145.539 5.93281L145.462 5.99685L145.463 5.99701L145.539 5.93281ZM136.683 16.6843L136.758 16.6189L136.758 16.6187L136.683 16.6843ZM136.628 7.58605L136.705 7.65009L136.705 7.64964L136.628 7.58605ZM144.051 7.58605L143.973 7.64918L143.974 7.64964L144.051 7.58605ZM144.033 16.6515L144.11 16.7153L144.11 16.7149L144.033 16.6515ZM133.067 12.0421C133.067 9.68483 133.787 7.66449 135.225 5.97575L135.073 5.84607C133.602 7.57329 132.867 9.64043 132.867 12.0421H133.067ZM135.431 18.5423C133.857 16.8925 133.067 14.7291 133.067 12.0421H132.867C132.867 14.7711 133.671 16.9871 135.287 18.6803L135.431 18.5423ZM140.262 20.7776C138.473 20.7776 136.864 20.0365 135.431 18.5421L135.287 18.6805C136.751 20.2078 138.41 20.9776 140.262 20.9776V20.7776ZM145.454 18.2616C144.016 19.9423 142.287 20.7776 140.262 20.7776V20.9776C142.351 20.9776 144.134 20.1123 145.606 18.3916L145.454 18.2616ZM147.603 12.1407C147.603 14.5497 146.886 16.588 145.454 18.2616L145.606 18.3916C147.072 16.6784 147.803 14.5928 147.803 12.1407H147.603ZM145.463 5.99701C146.889 7.70018 147.603 9.74624 147.603 12.1407H147.803C147.803 9.7031 147.075 7.61059 145.616 5.8686L145.463 5.99701ZM140.371 3.44894C142.347 3.44894 144.042 4.29406 145.462 5.99685L145.616 5.86876C144.163 4.1264 142.413 3.24894 140.371 3.24894V3.44894ZM135.225 5.97559C136.657 4.28744 138.371 3.44894 140.371 3.44894V3.24894C138.306 3.24894 136.538 4.11841 135.073 5.84623L135.225 5.97559ZM135.012 12.075C135.012 13.9633 135.542 15.5244 136.607 16.7499L136.758 16.6187C135.73 15.4356 135.212 13.9238 135.212 12.075H135.012ZM136.551 7.522C135.524 8.75394 135.012 10.2738 135.012 12.075H135.212C135.212 10.3142 135.711 8.84144 136.705 7.65009L136.551 7.522ZM140.344 5.64668C138.845 5.64668 137.578 6.27534 136.551 7.52245L136.705 7.64964C137.698 6.44426 138.91 5.84668 140.344 5.84668V5.64668ZM144.128 7.52291C143.113 6.2753 141.85 5.64668 140.344 5.64668V5.84668C141.785 5.84668 142.993 6.4443 143.973 7.64918L144.128 7.52291ZM145.657 12.1188C145.657 10.2962 145.149 8.76181 144.128 7.52246L143.974 7.64964C144.961 8.84817 145.457 10.3356 145.457 12.1188H145.657ZM144.11 16.7149C145.143 15.4542 145.657 13.9201 145.657 12.1188H145.457C145.457 13.8793 144.956 15.3671 143.955 16.5881L144.11 16.7149ZM140.289 18.5908C141.801 18.5908 143.076 17.9625 144.11 16.7153L143.956 16.5877C142.957 17.793 141.736 18.3908 140.289 18.3908V18.5908ZM136.607 16.7497C137.663 17.972 138.892 18.5908 140.289 18.5908V18.3908C138.96 18.3908 137.784 17.8054 136.758 16.6189L136.607 16.7497Z" fill="white"/>
<path fill-rule="evenodd" clip-rule="evenodd" d="M123.024 6.39663C123.294 6.22818 123.388 5.87654 123.216 5.60873C122.175 3.98412 120.787 3.17181 119.053 3.17181C117.643 3.17181 116.465 3.61427 115.518 4.49918C114.572 5.37659 114.098 6.46774 114.098 7.77261C114.098 9.70741 115.227 11.1773 117.483 12.1822L119.074 12.8796C119.487 13.0671 119.843 13.2658 120.142 13.4758C120.441 13.6783 120.683 13.8995 120.868 14.1395C121.06 14.372 121.199 14.6307 121.284 14.9156C121.377 15.1931 121.423 15.5006 121.423 15.8381C121.423 16.678 121.167 17.3717 120.654 17.9191C120.142 18.4665 119.497 18.7403 118.722 18.7403C117.739 18.7403 116.992 18.3653 116.479 17.6154C116.262 17.3172 116.094 16.835 115.976 16.1686C115.914 15.815 115.574 15.5719 115.224 15.6531L113.897 15.9613C113.594 16.0316 113.393 16.3223 113.453 16.6271C113.725 17.988 114.268 19.0636 115.081 19.8539C116.013 20.7463 117.195 21.1925 118.625 21.1925C120.135 21.1925 121.398 20.6676 122.416 19.6177C123.427 18.5753 123.932 17.2554 123.932 15.6581C123.932 14.4657 123.622 13.4608 123.003 12.6434C122.384 11.8185 121.405 11.121 120.067 10.5511L118.423 9.8424C117.227 9.32495 116.629 8.64252 116.629 7.7951C116.629 7.18017 116.857 6.67022 117.312 6.26526C117.768 5.8528 118.341 5.64657 119.031 5.64657C119.594 5.64657 120.053 5.76656 120.409 6.00653C120.65 6.15495 120.9 6.42326 121.16 6.81147C121.351 7.09835 121.734 7.20245 122.026 7.01975L123.024 6.39663ZM63.7338 5.58881C63.6445 5.82019 63.4221 5.97279 63.1741 5.97279H58.0519C57.7205 5.97279 57.4519 6.24141 57.4519 6.57279V10.0469C57.4519 10.0619 57.4524 10.0768 57.4535 10.0915V13.6659C57.4524 13.6806 57.4519 13.6955 57.4519 13.7104V17.814C57.4519 18.1454 57.7205 18.414 58.0519 18.414H63.6617C64.083 18.414 64.3731 18.837 64.2214 19.2301L63.7338 20.4936C63.6445 20.725 63.4221 20.8776 63.1741 20.8776H55.5641C55.2328 20.8776 54.9641 20.6089 54.9641 20.2776V4.10928C54.9641 3.77791 55.2328 3.50928 55.5641 3.50928H63.6617C64.083 3.50928 64.3731 3.9322 64.2214 4.32531L63.7338 5.58881ZM58.5914 13.1104H62.9819C63.2299 13.1104 63.4523 12.9579 63.5416 12.7265L64.0292 11.463C64.181 11.0699 63.8908 10.6469 63.4695 10.6469H58.5914V13.1104ZM34.2701 20.8776C33.8934 20.8776 33.6099 20.5345 33.6808 20.1646L36.6608 4.61709C36.7708 4.04335 37.5525 3.94912 37.7957 4.48028L42.1371 13.9634C42.3493 14.4269 43.0063 14.4313 43.2248 13.9707L47.7229 4.48538C47.9739 3.95606 48.7569 4.06332 48.8564 4.64064L51.5316 20.1757C51.5948 20.5424 51.3124 20.8776 50.9403 20.8776H49.6121C49.3174 20.8776 49.0663 20.6636 49.0197 20.3726L47.8131 12.8529C47.72 12.2726 46.9347 12.1583 46.68 12.6878L43.1792 19.9662C42.9598 20.4224 42.3089 20.4186 42.0948 19.9599L38.6911 12.668C38.4433 12.1372 37.6597 12.2397 37.5567 12.8163L36.2057 20.383C36.1546 20.6692 35.9057 20.8776 35.615 20.8776H34.2701ZM72.6623 6.57279C72.6623 6.24141 72.931 5.97279 73.2623 5.97279H76.0304C76.2785 5.97279 76.5009 5.82019 76.5902 5.58881L77.0778 4.32531C77.2295 3.93221 76.9394 3.50928 76.5181 3.50928H66.329C66.0768 3.50928 65.8514 3.66708 65.7652 3.90416L65.3055 5.16766C65.1632 5.55898 65.453 5.97279 65.8694 5.97279H69.5746C69.9059 5.97279 70.1746 6.24142 70.1746 6.57279V20.2776C70.1746 20.6089 70.4432 20.8776 70.7746 20.8776H72.0623C72.3937 20.8776 72.6623 20.6089 72.6623 20.2776V6.57279ZM87.4378 17.0316C87.3454 16.8063 87.1261 16.6592 86.8826 16.6592H83.7563H81.4648L82.5495 14.1957H85.3401C85.7762 14.1957 86.0666 13.7452 85.8866 13.348L84.3051 9.85849C84.0919 9.3879 83.4231 9.38897 83.2114 9.86024L81.6433 13.3498C81.6142 13.4147 81.5975 13.4809 81.592 13.5464L79.3196 18.7076L79.3332 18.7136L78.548 20.5171C78.4527 20.736 78.2367 20.8776 77.9979 20.8776H76.6441C76.2075 20.8776 75.917 20.426 76.0982 20.0286L83.3126 4.20603C83.5277 3.73447 84.1991 3.73897 84.4078 4.21338L91.3673 20.036C91.5417 20.4325 91.2512 20.8776 90.818 20.8776H89.4172C89.1738 20.8776 88.9545 20.7304 88.8621 20.5052L87.4378 17.0316ZM93.2989 3.88761C93.2081 3.6592 92.9872 3.50928 92.7414 3.50928H91.3115C90.8872 3.50928 90.5969 3.9377 90.7543 4.33176L97.1035 20.2341C97.3036 20.7353 98.012 20.7381 98.2162 20.2386L104.715 4.33627C104.877 3.94157 104.586 3.50928 104.16 3.50928H102.736C102.491 3.50928 102.271 3.65794 102.179 3.88493L98.268 13.5867C98.0655 14.0889 97.354 14.0871 97.154 13.584L93.2989 3.88761ZM109.312 3.50928C109.644 3.50928 109.912 3.77791 109.912 4.10928V20.2776C109.912 20.6089 109.644 20.8776 109.312 20.8776H108.025C107.693 20.8776 107.425 20.6089 107.425 20.2776V4.10928C107.425 3.77791 107.693 3.50928 108.025 3.50928H109.312ZM129.13 3.50928C129.462 3.50928 129.73 3.77791 129.73 4.10928V20.2776C129.73 20.6089 129.462 20.8776 129.13 20.8776H127.843C127.511 20.8776 127.243 20.6089 127.243 20.2776V4.10928C127.243 3.77791 127.511 3.50928 127.843 3.50928H129.13ZM151.076 20.2776C151.076 20.6089 151.344 20.8776 151.676 20.8776H152.963C153.295 20.8776 153.563 20.6089 153.563 20.2776V10.8291C153.563 10.2819 154.236 10.0203 154.606 10.4237L163.593 20.2288C163.962 20.6322 164.635 20.3706 164.635 19.8234V17.7275L161.16 13.9235C161.141 13.907 161.122 13.889 161.104 13.8694L152.118 4.0381C151.749 3.63388 151.076 3.89527 151.076 4.4429V20.2776ZM164.635 4.10928V16.0403L162.147 13.3169V4.10928C162.147 3.77791 162.416 3.50928 162.747 3.50928H164.035C164.366 3.50928 164.635 3.77791 164.635 4.10928Z" fill="white"/>
<path d="M123.216 5.60873L123.3 5.55479L123.3 5.55478L123.216 5.60873ZM123.024 6.39663L122.971 6.3118L122.971 6.3118L123.024 6.39663ZM115.518 4.49918L115.586 4.57253L115.587 4.57224L115.518 4.49918ZM117.483 12.1822L117.442 12.2735L117.443 12.2738L117.483 12.1822ZM119.074 12.8796L119.115 12.7885L119.114 12.788L119.074 12.8796ZM120.142 13.4758L120.084 13.5576L120.086 13.5586L120.142 13.4758ZM120.868 14.1395L120.788 14.2006L120.791 14.2032L120.868 14.1395ZM121.284 14.9156L121.188 14.9444L121.189 14.9473L121.284 14.9156ZM120.654 17.9191L120.581 17.8508L120.581 17.8508L120.654 17.9191ZM116.479 17.6154L116.562 17.5589L116.56 17.5564L116.479 17.6154ZM115.976 16.1686L115.878 16.186L115.878 16.186L115.976 16.1686ZM115.224 15.6531L115.247 15.7505L115.247 15.7505L115.224 15.6531ZM113.897 15.9613L113.874 15.8639L113.874 15.8639L113.897 15.9613ZM113.453 16.6271L113.355 16.6467L113.355 16.6467L113.453 16.6271ZM115.081 19.8539L115.011 19.9256L115.012 19.9261L115.081 19.8539ZM122.416 19.6177L122.344 19.5481L122.344 19.5481L122.416 19.6177ZM123.003 12.6434L122.923 12.7034L122.923 12.7038L123.003 12.6434ZM120.067 10.5511L120.027 10.6429L120.028 10.6431L120.067 10.5511ZM118.423 9.8424L118.383 9.93418L118.383 9.93423L118.423 9.8424ZM117.312 6.26526L117.379 6.34L117.379 6.33939L117.312 6.26526ZM120.409 6.00653L120.353 6.08952L120.356 6.09173L120.409 6.00653ZM121.16 6.81147L121.243 6.75593L121.243 6.75593L121.16 6.81147ZM122.026 7.01975L121.973 6.93493L121.973 6.93493L122.026 7.01975ZM63.7338 5.58881L63.6405 5.55281L63.6405 5.55281L63.7338 5.58881ZM57.4535 10.0915H57.5538L57.5532 10.0842L57.4535 10.0915ZM57.4535 13.6659L57.5535 13.6732V13.6659H57.4535ZM64.2214 19.2301L64.1281 19.1941L64.1281 19.1941L64.2214 19.2301ZM63.7338 20.4936L63.6405 20.4576L63.6405 20.4576L63.7338 20.4936ZM64.2214 4.32531L64.1281 4.2893L64.1281 4.2893L64.2214 4.32531ZM58.5914 13.1104H58.4914V13.2104H58.5914V13.1104ZM63.5416 12.7265L63.6349 12.7625L63.6349 12.7625L63.5416 12.7265ZM64.0292 11.463L64.1225 11.499L64.1225 11.499L64.0292 11.463ZM58.5914 10.6469V10.5469H58.4914V10.6469H58.5914ZM33.6808 20.1646L33.7791 20.1834L33.7791 20.1834L33.6808 20.1646ZM36.6608 4.61709L36.5626 4.59826L36.5626 4.59826L36.6608 4.61709ZM37.7957 4.48028L37.7047 4.5219L37.7047 4.5219L37.7957 4.48028ZM42.1371 13.9634L42.0462 14.005L42.0462 14.005L42.1371 13.9634ZM43.2248 13.9707L43.3151 14.0136L43.3151 14.0136L43.2248 13.9707ZM47.7229 4.48538L47.8133 4.52823L47.8133 4.52823L47.7229 4.48538ZM48.8564 4.64064L48.7578 4.65761L48.7578 4.65761L48.8564 4.64064ZM51.5316 20.1757L51.6302 20.1588L51.6302 20.1588L51.5316 20.1757ZM49.0197 20.3726L49.1184 20.3568L49.1184 20.3568L49.0197 20.3726ZM47.8131 12.8529L47.9118 12.837L47.9118 12.837L47.8131 12.8529ZM46.68 12.6878L46.5899 12.6445L46.5899 12.6445L46.68 12.6878ZM43.1792 19.9662L43.2693 20.0095L43.2693 20.0095L43.1792 19.9662ZM42.0948 19.9599L42.1854 19.9176L42.1854 19.9176L42.0948 19.9599ZM38.6911 12.668L38.7817 12.6257L38.7817 12.6257L38.6911 12.668ZM37.5567 12.8163L37.4583 12.7988L37.4583 12.7988L37.5567 12.8163ZM36.2057 20.383L36.3041 20.4006L36.3041 20.4006L36.2057 20.383ZM76.5902 5.58881L76.4969 5.55281L76.4969 5.55281L76.5902 5.58881ZM77.0778 4.32531L77.1711 4.36131L77.1711 4.36131L77.0778 4.32531ZM65.7652 3.90416L65.6712 3.86997L65.6712 3.86997L65.7652 3.90416ZM65.3055 5.16766L65.2116 5.13347L65.2116 5.13347L65.3055 5.16766ZM87.4378 17.0316L87.3452 17.0695L87.3452 17.0695L87.4378 17.0316ZM81.4648 16.6592L81.3733 16.6189L81.3115 16.7592H81.4648V16.6592ZM82.5495 14.1957V14.0957H82.4842L82.4579 14.1554L82.5495 14.1957ZM85.8866 13.348L85.9777 13.3068L85.9777 13.3068L85.8866 13.348ZM84.3051 9.85849L84.2141 9.89977L84.2141 9.89977L84.3051 9.85849ZM83.2114 9.86024L83.1201 9.81925L83.1201 9.81925L83.2114 9.86024ZM81.6433 13.3498L81.5521 13.3088L81.5521 13.3088L81.6433 13.3498ZM81.592 13.5464L81.6835 13.5866L81.6903 13.5714L81.6917 13.5548L81.592 13.5464ZM79.3196 18.7076L79.2281 18.6673L79.1878 18.7588L79.2793 18.7991L79.3196 18.7076ZM79.3332 18.7136L79.4249 18.7535L79.4646 18.6622L79.3735 18.6221L79.3332 18.7136ZM78.548 20.5171L78.4563 20.4771L78.4563 20.4771L78.548 20.5171ZM76.0982 20.0286L76.1892 20.0701L76.1892 20.0701L76.0982 20.0286ZM83.3126 4.20603L83.2217 4.16454L83.2217 4.16454L83.3126 4.20603ZM84.4078 4.21338L84.4993 4.17312L84.4993 4.17312L84.4078 4.21338ZM91.3673 20.036L91.2757 20.0762L91.2757 20.0762L91.3673 20.036ZM88.8621 20.5052L88.7696 20.5431L88.7696 20.5431L88.8621 20.5052ZM93.2989 3.88761L93.206 3.92456L93.206 3.92456L93.2989 3.88761ZM90.7543 4.33176L90.8471 4.29468L90.8471 4.29468L90.7543 4.33176ZM97.1035 20.2341L97.0107 20.2712L97.0107 20.2712L97.1035 20.2341ZM98.2162 20.2386L98.1236 20.2008L98.1236 20.2008L98.2162 20.2386ZM104.715 4.33627L104.808 4.37411L104.808 4.37411L104.715 4.33627ZM102.179 3.88493L102.272 3.92232L102.272 3.92232L102.179 3.88493ZM98.268 13.5867L98.3608 13.6241L98.3608 13.6241L98.268 13.5867ZM97.154 13.584L97.061 13.621L97.061 13.621L97.154 13.584ZM154.606 10.4237L154.679 10.3561L154.679 10.3561L154.606 10.4237ZM163.593 20.2288L163.519 20.2964L163.519 20.2964L163.593 20.2288ZM164.635 17.7275H164.735V17.6887L164.709 17.6601L164.635 17.7275ZM161.16 13.9235L161.234 13.8555L161.225 13.8476L161.16 13.9235ZM161.104 13.8694L161.178 13.8019L161.178 13.8019L161.104 13.8694ZM152.118 4.0381L152.192 3.97064L152.192 3.97064L152.118 4.0381ZM164.635 16.0403L164.561 16.1077L164.735 16.298V16.0403H164.635ZM162.147 13.3169H162.047V13.3557L162.073 13.3844L162.147 13.3169ZM123.132 5.66268C123.271 5.8798 123.198 6.1704 122.971 6.3118L123.077 6.48145C123.39 6.28597 123.504 5.87329 123.3 5.55479L123.132 5.66268ZM119.053 3.27181C120.749 3.27181 122.107 4.06295 123.132 5.66268L123.3 5.55478C122.243 3.90529 120.826 3.07181 119.053 3.07181V3.27181ZM115.587 4.57224C116.513 3.70622 117.666 3.27181 119.053 3.27181V3.07181C117.62 3.07181 116.417 3.52232 115.45 4.42613L115.587 4.57224ZM114.198 7.77261C114.198 6.49523 114.66 5.43078 115.586 4.57253L115.45 4.42584C114.483 5.32241 113.998 6.44024 113.998 7.77261H114.198ZM117.524 12.0908C116.406 11.593 115.575 10.9833 115.024 10.2652C114.474 9.54856 114.198 8.71904 114.198 7.77261H113.998C113.998 8.76098 114.287 9.63379 114.865 10.387C115.442 11.1388 116.304 11.7665 117.442 12.2735L117.524 12.0908ZM119.114 12.788L117.523 12.0906L117.443 12.2738L119.034 12.9712L119.114 12.788ZM120.199 13.394C119.894 13.1797 119.532 12.978 119.115 12.7885L119.033 12.9706C119.441 13.1562 119.791 13.3519 120.084 13.5576L120.199 13.394ZM120.947 14.0784C120.754 13.8286 120.504 13.6003 120.198 13.393L120.086 13.5586C120.377 13.7562 120.611 13.9704 120.788 14.2005L120.947 14.0784ZM121.38 14.8869C121.291 14.589 121.145 14.3184 120.945 14.0758L120.791 14.2032C120.974 14.4255 121.107 14.6724 121.188 14.9444L121.38 14.8869ZM121.523 15.8381C121.523 15.4915 121.475 15.1731 121.379 14.884L121.189 14.9473C121.278 15.2131 121.323 15.5097 121.323 15.8381H121.523ZM120.727 17.9874C121.259 17.4192 121.523 16.7001 121.523 15.8381H121.323C121.323 16.6559 121.074 17.3241 120.581 17.8508L120.727 17.9874ZM118.722 18.8403C119.524 18.8403 120.195 18.5559 120.727 17.9874L120.581 17.8508C120.088 18.3772 119.471 18.6403 118.722 18.6403V18.8403ZM116.397 17.6718C116.93 18.4515 117.709 18.8403 118.722 18.8403V18.6403C117.769 18.6403 117.054 18.2791 116.562 17.559L116.397 17.6718ZM115.878 16.186C115.996 16.8569 116.167 17.3575 116.399 17.6743L116.56 17.5564C116.356 17.277 116.192 16.8131 116.075 16.1512L115.878 16.186ZM115.247 15.7505C115.537 15.6833 115.824 15.8843 115.878 16.186L116.075 16.1512C116.003 15.7457 115.612 15.4605 115.202 15.5557L115.247 15.7505ZM113.919 16.0588L115.247 15.7505L115.202 15.5557L113.874 15.8639L113.919 16.0588ZM113.551 16.6075C113.502 16.3593 113.665 16.1177 113.919 16.0588L113.874 15.8639C113.522 15.9456 113.283 16.2853 113.355 16.6467L113.551 16.6075ZM115.15 19.7822C114.355 19.0089 113.82 17.953 113.551 16.6075L113.355 16.6467C113.63 18.0229 114.18 19.1183 115.011 19.9256L115.15 19.7822ZM118.625 21.0925C117.217 21.0925 116.062 20.6543 115.15 19.7817L115.012 19.9261C115.965 20.8384 117.172 21.2925 118.625 21.2925V21.0925ZM122.344 19.5481C121.346 20.5779 120.108 21.0925 118.625 21.0925V21.2925C120.161 21.2925 121.45 20.7573 122.488 19.6873L122.344 19.5481ZM123.832 15.6581C123.832 17.2323 123.335 18.5263 122.344 19.5481L122.488 19.6873C123.518 18.6243 124.032 17.2786 124.032 15.6581H123.832ZM122.923 12.7038C123.527 13.5011 123.832 14.4838 123.832 15.6581H124.032C124.032 14.4476 123.717 13.4205 123.083 12.583L122.923 12.7038ZM120.028 10.6431C121.356 11.2088 122.318 11.8972 122.923 12.7034L123.083 12.5833C122.45 11.7398 121.454 11.0332 120.106 10.4591L120.028 10.6431ZM118.383 9.93423L120.027 10.6429L120.106 10.4592L118.462 9.75057L118.383 9.93423ZM116.529 7.7951C116.529 8.70207 117.173 9.41055 118.383 9.93418L118.462 9.75062C117.281 9.23936 116.729 8.58297 116.729 7.7951H116.529ZM117.246 6.19052C116.769 6.61465 116.529 7.15189 116.529 7.7951H116.729C116.729 7.20844 116.945 6.72579 117.379 6.34L117.246 6.19052ZM119.031 5.54657C118.319 5.54657 117.721 5.75993 117.245 6.19113L117.379 6.33939C117.814 5.94566 118.362 5.74657 119.031 5.74657V5.54657ZM120.464 5.92362C120.088 5.66953 119.607 5.54657 119.031 5.54657V5.74657C119.58 5.74657 120.018 5.86359 120.353 6.08945L120.464 5.92362ZM121.243 6.75593C120.98 6.36254 120.72 6.08066 120.461 5.92134L120.356 6.09173C120.58 6.22925 120.821 6.48399 121.077 6.86701L121.243 6.75593ZM121.973 6.93493C121.732 7.0858 121.408 7.0031 121.243 6.75593L121.077 6.86701C121.295 7.1936 121.736 7.3191 122.079 7.10458L121.973 6.93493ZM122.971 6.3118L121.973 6.93493L122.079 7.10458L123.077 6.48145L122.971 6.3118ZM63.1741 6.07279C63.4634 6.07279 63.7229 5.89476 63.8271 5.62481L63.6405 5.55281C63.5661 5.74562 63.3807 5.87279 63.1741 5.87279V6.07279ZM58.0519 6.07279H63.1741V5.87279H58.0519V6.07279ZM57.5519 6.57279C57.5519 6.29664 57.7757 6.07279 58.0519 6.07279V5.87279C57.6653 5.87279 57.3519 6.18619 57.3519 6.57279H57.5519ZM57.5519 10.0469V6.57279H57.3519V10.0469H57.5519ZM57.5532 10.0842C57.5523 10.0719 57.5519 10.0595 57.5519 10.0469H57.3519C57.3519 10.0644 57.3525 10.0817 57.3538 10.0988L57.5532 10.0842ZM57.5535 13.6659V10.0915H57.3535V13.6659H57.5535ZM57.5519 13.7104C57.5519 13.6979 57.5523 13.6855 57.5532 13.6732L57.3538 13.6586C57.3525 13.6757 57.3519 13.693 57.3519 13.7104H57.5519ZM57.5519 17.814V13.7104H57.3519V17.814H57.5519ZM58.0519 18.314C57.7757 18.314 57.5519 18.0902 57.5519 17.814H57.3519C57.3519 18.2006 57.6653 18.514 58.0519 18.514V18.314ZM63.6617 18.314H58.0519V18.514H63.6617V18.314ZM64.3147 19.2661C64.4917 18.8075 64.1533 18.314 63.6617 18.314V18.514C64.0128 18.514 64.2546 18.8665 64.1281 19.1941L64.3147 19.2661ZM63.8271 20.5296L64.3147 19.2661L64.1281 19.1941L63.6405 20.4576L63.8271 20.5296ZM63.1741 20.9776C63.4634 20.9776 63.7229 20.7995 63.8271 20.5296L63.6405 20.4576C63.5661 20.6504 63.3807 20.7776 63.1741 20.7776V20.9776ZM55.5641 20.9776H63.1741V20.7776H55.5641V20.9776ZM54.8641 20.2776C54.8641 20.6642 55.1775 20.9776 55.5641 20.9776V20.7776C55.288 20.7776 55.0641 20.5537 55.0641 20.2776H54.8641ZM54.8641 4.10928V20.2776H55.0641V4.10928H54.8641ZM55.5641 3.40928C55.1775 3.40928 54.8641 3.72268 54.8641 4.10928H55.0641C55.0641 3.83314 55.288 3.60928 55.5641 3.60928V3.40928ZM63.6617 3.40928H55.5641V3.60928H63.6617V3.40928ZM64.3147 4.36131C64.4917 3.90269 64.1533 3.40928 63.6617 3.40928V3.60928C64.0128 3.60928 64.2546 3.96172 64.1281 4.2893L64.3147 4.36131ZM63.8271 5.62481L64.3147 4.36131L64.1281 4.2893L63.6405 5.55281L63.8271 5.62481ZM58.5914 13.2104H62.9819V13.0104H58.5914V13.2104ZM62.9819 13.2104C63.2712 13.2104 63.5307 13.0324 63.6349 12.7625L63.4483 12.6905C63.3739 12.8833 63.1885 13.0104 62.9819 13.0104V13.2104ZM63.6349 12.7625L64.1225 11.499L63.936 11.427L63.4483 12.6905L63.6349 12.7625ZM64.1225 11.499C64.2995 11.0404 63.9611 10.5469 63.4695 10.5469V10.7469C63.8206 10.7469 64.0624 11.0994 63.936 11.427L64.1225 11.499ZM63.4695 10.5469H58.5914V10.7469H63.4695V10.5469ZM58.4914 10.6469V13.1104H58.6914V10.6469H58.4914ZM33.5826 20.1458C33.4999 20.5774 33.8307 20.9776 34.2701 20.9776V20.7776C33.9562 20.7776 33.72 20.4917 33.7791 20.1834L33.5826 20.1458ZM36.5626 4.59826L33.5826 20.1458L33.7791 20.1834L36.7591 4.63591L36.5626 4.59826ZM37.8866 4.43865C37.6029 3.81896 36.6909 3.92891 36.5626 4.59826L36.7591 4.63591C36.8507 4.1578 37.5021 4.07927 37.7047 4.5219L37.8866 4.43865ZM42.228 13.9217L37.8866 4.43865L37.7047 4.5219L42.0462 14.005L42.228 13.9217ZM43.1344 13.9279C42.9524 14.3117 42.4049 14.308 42.228 13.9217L42.0462 14.005C42.2938 14.5458 43.0603 14.551 43.3151 14.0136L43.1344 13.9279ZM47.6326 4.44253L43.1344 13.9279L43.3151 14.0136L47.8133 4.52823L47.6326 4.44253ZM48.9549 4.62367C48.8389 3.95013 47.9254 3.82499 47.6326 4.44253L47.8133 4.52823C48.0225 4.08713 48.675 4.17651 48.7578 4.65761L48.9549 4.62367ZM51.6302 20.1588L48.9549 4.62367L48.7578 4.65761L51.4331 20.1927L51.6302 20.1588ZM50.9403 20.9776C51.3744 20.9776 51.7039 20.5865 51.6302 20.1588L51.4331 20.1927C51.4857 20.4983 51.2504 20.7776 50.9403 20.7776V20.9776ZM49.6121 20.9776H50.9403V20.7776H49.6121V20.9776ZM48.9209 20.3885C48.9754 20.7279 49.2683 20.9776 49.6121 20.9776V20.7776C49.3665 20.7776 49.1573 20.5992 49.1184 20.3568L48.9209 20.3885ZM47.7144 12.8687L48.9209 20.3885L49.1184 20.3568L47.9118 12.837L47.7144 12.8687ZM46.7701 12.7312C46.9824 12.2899 47.6368 12.3852 47.7144 12.8687L47.9118 12.837C47.8032 12.1601 46.887 12.0267 46.5899 12.6445L46.7701 12.7312ZM43.2693 20.0095L46.7701 12.7312L46.5899 12.6445L43.0891 19.9229L43.2693 20.0095ZM42.0042 20.0022C42.254 20.5373 43.0133 20.5417 43.2693 20.0095L43.0891 19.9229C42.9062 20.303 42.3638 20.2998 42.1854 19.9176L42.0042 20.0022ZM38.6005 12.7103L42.0042 20.0022L42.1854 19.9176L38.7817 12.6257L38.6005 12.7103ZM37.6552 12.8339C37.741 12.3534 38.394 12.268 38.6005 12.7103L38.7817 12.6257C38.4926 12.0064 37.5784 12.126 37.4583 12.7988L37.6552 12.8339ZM36.3041 20.4006L37.6552 12.8339L37.4583 12.7988L36.1072 20.3654L36.3041 20.4006ZM35.615 20.9776C35.9541 20.9776 36.2445 20.7344 36.3041 20.4006L36.1072 20.3654C36.0646 20.6039 35.8572 20.7776 35.615 20.7776V20.9776ZM34.2701 20.9776H35.615V20.7776H34.2701V20.9776ZM73.2623 5.87279C72.8757 5.87279 72.5623 6.18619 72.5623 6.57279H72.7623C72.7623 6.29664 72.9862 6.07279 73.2623 6.07279V5.87279ZM76.0304 5.87279H73.2623V6.07279H76.0304V5.87279ZM76.4969 5.55281C76.4225 5.74562 76.2371 5.87279 76.0304 5.87279V6.07279C76.3198 6.07279 76.5793 5.89476 76.6835 5.62481L76.4969 5.55281ZM76.9845 4.2893L76.4969 5.55281L76.6835 5.62482L77.1711 4.36131L76.9845 4.2893ZM76.5181 3.60928C76.8692 3.60928 77.1109 3.96172 76.9845 4.2893L77.1711 4.36131C77.3481 3.90269 77.0096 3.40928 76.5181 3.40928V3.60928ZM66.329 3.60928H76.5181V3.40928H66.329V3.60928ZM65.8592 3.93834C65.931 3.74078 66.1188 3.60928 66.329 3.60928V3.40928C66.0347 3.40928 65.7718 3.59338 65.6712 3.86997L65.8592 3.93834ZM65.3995 5.20185L65.8592 3.93834L65.6712 3.86997L65.2116 5.13347L65.3995 5.20185ZM65.8694 5.87279C65.5224 5.87279 65.2809 5.52795 65.3995 5.20185L65.2116 5.13347C65.0455 5.59002 65.3836 6.07279 65.8694 6.07279V5.87279ZM69.5746 5.87279H65.8694V6.07279H69.5746V5.87279ZM70.2746 6.57279C70.2746 6.18619 69.9612 5.87279 69.5746 5.87279V6.07279C69.8507 6.07279 70.0746 6.29664 70.0746 6.57279H70.2746ZM70.2746 20.2776V6.57279H70.0746V20.2776H70.2746ZM70.7746 20.7776C70.4984 20.7776 70.2746 20.5537 70.2746 20.2776H70.0746C70.0746 20.6642 70.388 20.9776 70.7746 20.9776V20.7776ZM72.0623 20.7776H70.7746V20.9776H72.0623V20.7776ZM72.5623 20.2776C72.5623 20.5537 72.3385 20.7776 72.0623 20.7776V20.9776C72.4489 20.9776 72.7623 20.6642 72.7623 20.2776H72.5623ZM72.5623 6.57279V20.2776H72.7623V6.57279H72.5623ZM86.8826 16.7592C87.0855 16.7592 87.2683 16.8818 87.3452 17.0695L87.5303 16.9937C87.4225 16.7309 87.1667 16.5592 86.8826 16.5592V16.7592ZM83.7563 16.7592H86.8826V16.5592H83.7563V16.7592ZM81.4648 16.7592H83.7563V16.5592H81.4648V16.7592ZM82.4579 14.1554L81.3733 16.6189L81.5563 16.6995L82.641 14.236L82.4579 14.1554ZM85.3401 14.0957H82.5495V14.2957H85.3401V14.0957ZM85.7955 13.3893C85.9455 13.7203 85.7035 14.0957 85.3401 14.0957V14.2957C85.8489 14.2957 86.1877 13.7702 85.9777 13.3068L85.7955 13.3893ZM84.2141 9.89977L85.7955 13.3893L85.9777 13.3068L84.3962 9.81722L84.2141 9.89977ZM83.3026 9.90123C83.479 9.5085 84.0363 9.50761 84.2141 9.89977L84.3962 9.81722C84.1474 9.26819 83.3672 9.26943 83.1201 9.81925L83.3026 9.90123ZM81.7345 13.3908L83.3026 9.90123L83.1201 9.81925L81.5521 13.3088L81.7345 13.3908ZM81.6917 13.5548C81.6962 13.5005 81.71 13.4453 81.7345 13.3908L81.5521 13.3088C81.5183 13.384 81.4989 13.4613 81.4924 13.5379L81.6917 13.5548ZM79.4111 18.7479L81.6835 13.5866L81.5005 13.5061L79.2281 18.6673L79.4111 18.7479ZM79.3735 18.6221L79.3599 18.6161L79.2793 18.7991L79.2929 18.8051L79.3735 18.6221ZM78.6397 20.557L79.4249 18.7535L79.2415 18.6737L78.4563 20.4771L78.6397 20.557ZM77.9979 20.9776C78.2765 20.9776 78.5285 20.8124 78.6397 20.557L78.4563 20.4771C78.3769 20.6596 78.1969 20.7776 77.9979 20.7776V20.9776ZM76.6441 20.9776H77.9979V20.7776H76.6441V20.9776ZM76.0072 19.9871C75.7959 20.4507 76.1347 20.9776 76.6441 20.9776V20.7776C76.2802 20.7776 76.0382 20.4012 76.1892 20.0701L76.0072 19.9871ZM83.2217 4.16454L76.0072 19.9871L76.1892 20.0701L83.4036 4.24752L83.2217 4.16454ZM84.4993 4.17312C84.2559 3.61964 83.4725 3.61438 83.2217 4.16454L83.4036 4.24752C83.5828 3.85455 84.1424 3.8583 84.3163 4.25364L84.4993 4.17312ZM91.4588 19.9957L84.4993 4.17312L84.3163 4.25364L91.2757 20.0762L91.4588 19.9957ZM90.818 20.9776C91.3234 20.9776 91.6623 20.4583 91.4588 19.9957L91.2757 20.0762C91.4211 20.4067 91.179 20.7776 90.818 20.7776V20.9776ZM89.4172 20.9776H90.818V20.7776H89.4172V20.9776ZM88.7696 20.5431C88.8773 20.8059 89.1332 20.9776 89.4172 20.9776V20.7776C89.2144 20.7776 89.0316 20.655 88.9546 20.4672L88.7696 20.5431ZM87.3452 17.0695L88.7696 20.5431L88.9546 20.4672L87.5303 16.9937L87.3452 17.0695ZM92.7414 3.60928C92.9462 3.60928 93.1303 3.73421 93.206 3.92456L93.3919 3.85067C93.2859 3.58419 93.0282 3.40928 92.7414 3.40928V3.60928ZM91.3115 3.60928H92.7414V3.40928H91.3115V3.60928ZM90.8471 4.29468C90.716 3.96629 90.9579 3.60928 91.3115 3.60928V3.40928C90.8164 3.40928 90.4778 3.9091 90.6614 4.36885L90.8471 4.29468ZM97.1964 20.197L90.8471 4.29468L90.6614 4.36884L97.0107 20.2712L97.1964 20.197ZM98.1236 20.2008C97.9535 20.6171 97.3631 20.6147 97.1964 20.197L97.0107 20.2712C97.2441 20.8559 98.0705 20.8592 98.3087 20.2764L98.1236 20.2008ZM104.623 4.29844L98.1236 20.2008L98.3087 20.2764L104.808 4.37411L104.623 4.29844ZM104.16 3.60928C104.515 3.60928 104.757 3.96952 104.623 4.29844L104.808 4.37411C104.996 3.91362 104.658 3.40928 104.16 3.40928V3.60928ZM102.736 3.60928H104.16V3.40928H102.736V3.60928ZM102.272 3.92232C102.348 3.73316 102.532 3.60928 102.736 3.60928V3.40928C102.45 3.40928 102.193 3.58271 102.087 3.84754L102.272 3.92232ZM98.3608 13.6241L102.272 3.92232L102.087 3.84754L98.1753 13.5493L98.3608 13.6241ZM97.061 13.621C97.2944 14.2079 98.1245 14.2099 98.3608 13.6241L98.1753 13.5493C98.0065 13.9678 97.4136 13.9663 97.2469 13.5471L97.061 13.621ZM93.206 3.92456L97.061 13.621L97.2469 13.5471L93.3919 3.85067L93.206 3.92456ZM110.012 4.10928C110.012 3.72268 109.699 3.40928 109.312 3.40928V3.60928C109.588 3.60928 109.812 3.83314 109.812 4.10928H110.012ZM110.012 20.2776V4.10928H109.812V20.2776H110.012ZM109.312 20.9776C109.699 20.9776 110.012 20.6642 110.012 20.2776H109.812C109.812 20.5537 109.588 20.7776 109.312 20.7776V20.9776ZM108.025 20.9776H109.312V20.7776H108.025V20.9776ZM107.325 20.2776C107.325 20.6642 107.638 20.9776 108.025 20.9776V20.7776C107.748 20.7776 107.525 20.5537 107.525 20.2776H107.325ZM107.325 4.10928V20.2776H107.525V4.10928H107.325ZM108.025 3.40928C107.638 3.40928 107.325 3.72268 107.325 4.10928H107.525C107.525 3.83314 107.748 3.60928 108.025 3.60928V3.40928ZM109.312 3.40928H108.025V3.60928H109.312V3.40928ZM129.83 4.10928C129.83 3.72268 129.517 3.40928 129.13 3.40928V3.60928C129.407 3.60928 129.63 3.83314 129.63 4.10928H129.83ZM129.83 20.2776V4.10928H129.63V20.2776H129.83ZM129.13 20.9776C129.517 20.9776 129.83 20.6642 129.83 20.2776H129.63C129.63 20.5537 129.407 20.7776 129.13 20.7776V20.9776ZM127.843 20.9776H129.13V20.7776H127.843V20.9776ZM127.143 20.2776C127.143 20.6642 127.456 20.9776 127.843 20.9776V20.7776C127.566 20.7776 127.343 20.5537 127.343 20.2776H127.143ZM127.143 4.10928V20.2776H127.343V4.10928H127.143ZM127.843 3.40928C127.456 3.40928 127.143 3.72268 127.143 4.10928H127.343C127.343 3.83314 127.566 3.60928 127.843 3.60928V3.40928ZM129.13 3.40928H127.843V3.60928H129.13V3.40928ZM151.676 20.7776C151.399 20.7776 151.176 20.5537 151.176 20.2776H150.976C150.976 20.6642 151.289 20.9776 151.676 20.9776V20.7776ZM152.963 20.7776H151.676V20.9776H152.963V20.7776ZM153.463 20.2776C153.463 20.5537 153.239 20.7776 152.963 20.7776V20.9776C153.35 20.9776 153.663 20.6642 153.663 20.2776H153.463ZM153.463 10.8291V20.2776H153.663V10.8291H153.463ZM154.679 10.3561C154.248 9.88546 153.463 10.1907 153.463 10.8291H153.663C153.663 10.3731 154.224 10.1551 154.532 10.4912L154.679 10.3561ZM163.666 20.1612L154.679 10.3561L154.532 10.4912L163.519 20.2964L163.666 20.1612ZM164.535 19.8234C164.535 20.2794 163.974 20.4974 163.666 20.1612L163.519 20.2964C163.95 20.767 164.735 20.4618 164.735 19.8234H164.535ZM164.535 17.7275V19.8234H164.735V17.7275H164.535ZM161.086 13.9909L164.561 17.795L164.709 17.6601L161.234 13.856L161.086 13.9909ZM161.03 13.9368C161.051 13.9594 161.073 13.9802 161.095 13.9994L161.225 13.8476C161.209 13.8338 161.193 13.8186 161.178 13.8019L161.03 13.9368ZM152.045 4.10557L161.03 13.9368L161.178 13.8019L152.192 3.97064L152.045 4.10557ZM151.176 4.4429C151.176 3.98654 151.737 3.76872 152.045 4.10557L152.192 3.97064C151.761 3.49905 150.976 3.80399 150.976 4.4429H151.176ZM151.176 20.2776V4.4429H150.976V20.2776H151.176ZM164.735 16.0403V4.10928H164.535V16.0403H164.735ZM162.073 13.3844L164.561 16.1077L164.709 15.9729L162.221 13.2495L162.073 13.3844ZM162.047 4.10928V13.3169H162.247V4.10928H162.047ZM162.747 3.40928C162.361 3.40928 162.047 3.72268 162.047 4.10928H162.247C162.247 3.83314 162.471 3.60928 162.747 3.60928V3.40928ZM164.035 3.40928H162.747V3.60928H164.035V3.40928ZM164.735 4.10928C164.735 3.72268 164.422 3.40928 164.035 3.40928V3.60928C164.311 3.60928 164.535 3.83314 164.535 4.10928H164.735Z" fill="white"/>
</svg>
