<svg width="165" height="24" viewBox="0 0 165 24" fill="none" xmlns="http://www.w3.org/2000/svg">
<path fill-rule="evenodd" clip-rule="evenodd" d="M135.148 5.91091C133.693 7.61889 132.966 9.66263 132.966 12.0421C132.966 14.7501 133.763 16.9398 135.358 18.6113C136.807 20.1222 138.441 20.8776 140.261 20.8776C142.318 20.8776 144.074 20.0273 145.529 18.3266C146.978 16.6332 147.702 14.5713 147.702 12.1407C147.702 9.72467 146.981 7.65539 145.538 5.93281C144.102 4.21023 142.379 3.34894 140.37 3.34894C138.337 3.34894 136.597 4.20293 135.148 5.91091ZM136.682 16.6843C135.635 15.48 135.111 13.9435 135.111 12.075C135.111 10.294 135.617 8.79769 136.627 7.58605C137.637 6.3598 138.876 5.74668 140.343 5.74668C141.816 5.74668 143.052 6.3598 144.05 7.58605C145.054 8.80499 145.556 10.3159 145.556 12.1188C145.556 13.8997 145.048 15.4106 144.032 16.6515C143.015 17.8777 141.767 18.4908 140.288 18.4908C138.925 18.4908 137.723 17.8887 136.682 16.6843Z" fill="black"/>
<path d="M135.148 5.91091L135.224 5.97575L135.224 5.97559L135.148 5.91091ZM135.358 18.6113L135.286 18.6803L135.286 18.6805L135.358 18.6113ZM145.529 18.3266L145.453 18.2616L145.453 18.2616L145.529 18.3266ZM145.538 5.93281L145.461 5.99685L145.462 5.99701L145.538 5.93281ZM136.682 16.6843L136.758 16.6189L136.757 16.6187L136.682 16.6843ZM136.627 7.58605L136.704 7.65009L136.704 7.64964L136.627 7.58605ZM144.05 7.58605L143.972 7.64918L143.973 7.64964L144.05 7.58605ZM144.032 16.6515L144.109 16.7153L144.109 16.7149L144.032 16.6515ZM133.066 12.0421C133.066 9.68483 133.786 7.66449 135.224 5.97575L135.072 5.84607C133.601 7.57329 132.866 9.64043 132.866 12.0421H133.066ZM135.43 18.5423C133.856 16.8925 133.066 14.7291 133.066 12.0421H132.866C132.866 14.7711 133.67 16.9871 135.286 18.6803L135.43 18.5423ZM140.261 20.7776C138.472 20.7776 136.863 20.0365 135.43 18.5421L135.286 18.6805C136.75 20.2078 138.41 20.9776 140.261 20.9776V20.7776ZM145.453 18.2616C144.015 19.9423 142.286 20.7776 140.261 20.7776V20.9776C142.35 20.9776 144.133 20.1123 145.605 18.3916L145.453 18.2616ZM147.602 12.1407C147.602 14.5497 146.885 16.588 145.453 18.2616L145.605 18.3916C147.071 16.6784 147.802 14.5928 147.802 12.1407H147.602ZM145.462 5.99701C146.888 7.70018 147.602 9.74624 147.602 12.1407H147.802C147.802 9.7031 147.074 7.61059 145.615 5.8686L145.462 5.99701ZM140.37 3.44894C142.346 3.44894 144.041 4.29406 145.461 5.99685L145.615 5.86876C144.162 4.1264 142.412 3.24894 140.37 3.24894V3.44894ZM135.224 5.97559C136.656 4.28744 138.37 3.44894 140.37 3.44894V3.24894C138.305 3.24894 136.537 4.11841 135.072 5.84623L135.224 5.97559ZM135.011 12.075C135.011 13.9633 135.541 15.5244 136.606 16.7499L136.757 16.6187C135.729 15.4356 135.211 13.9238 135.211 12.075H135.011ZM136.55 7.522C135.523 8.75394 135.011 10.2738 135.011 12.075H135.211C135.211 10.3142 135.71 8.84144 136.704 7.65009L136.55 7.522ZM140.343 5.64668C138.844 5.64668 137.577 6.27534 136.55 7.52245L136.704 7.64964C137.697 6.44426 138.909 5.84668 140.343 5.84668V5.64668ZM144.128 7.52291C143.112 6.2753 141.849 5.64668 140.343 5.64668V5.84668C141.784 5.84668 142.992 6.4443 143.972 7.64918L144.128 7.52291ZM145.656 12.1188C145.656 10.2962 145.148 8.76181 144.127 7.52246L143.973 7.64964C144.96 8.84817 145.456 10.3356 145.456 12.1188H145.656ZM144.109 16.7149C145.142 15.4542 145.656 13.9201 145.656 12.1188H145.456C145.456 13.8793 144.955 15.3671 143.954 16.5881L144.109 16.7149ZM140.288 18.5908C141.8 18.5908 143.075 17.9625 144.109 16.7153L143.955 16.5877C142.956 17.793 141.735 18.3908 140.288 18.3908V18.5908ZM136.606 16.7497C137.663 17.972 138.891 18.5908 140.288 18.5908V18.3908C138.959 18.3908 137.783 17.8054 136.758 16.6189L136.606 16.7497Z" fill="black"/>
<path fill-rule="evenodd" clip-rule="evenodd" d="M123.025 6.39663C123.295 6.22818 123.389 5.87654 123.217 5.60873C122.176 3.98412 120.788 3.17181 119.054 3.17181C117.644 3.17181 116.466 3.61427 115.519 4.49918C114.573 5.37659 114.099 6.46774 114.099 7.77261C114.099 9.70741 115.228 11.1773 117.484 12.1822L119.075 12.8796C119.488 13.0671 119.844 13.2658 120.143 13.4758C120.442 13.6783 120.684 13.8995 120.869 14.1395C121.061 14.372 121.2 14.6307 121.285 14.9156C121.378 15.1931 121.424 15.5006 121.424 15.8381C121.424 16.678 121.168 17.3717 120.655 17.9191C120.143 18.4665 119.498 18.7403 118.723 18.7403C117.74 18.7403 116.993 18.3653 116.48 17.6154C116.263 17.3172 116.095 16.835 115.977 16.1686C115.915 15.815 115.575 15.5719 115.225 15.6531L113.898 15.9613C113.595 16.0316 113.394 16.3223 113.454 16.6271C113.726 17.988 114.268 19.0636 115.082 19.8539C116.014 20.7463 117.196 21.1925 118.626 21.1925C120.135 21.1925 121.399 20.6676 122.417 19.6177C123.428 18.5753 123.933 17.2554 123.933 15.6581C123.933 14.4657 123.623 13.4608 123.004 12.6434C122.385 11.8185 121.406 11.121 120.068 10.5511L118.424 9.8424C117.228 9.32495 116.63 8.64252 116.63 7.7951C116.63 7.18017 116.858 6.67022 117.313 6.26526C117.769 5.8528 118.342 5.64657 119.032 5.64657C119.595 5.64657 120.054 5.76656 120.41 6.00653C120.651 6.15495 120.901 6.42326 121.161 6.81147C121.352 7.09835 121.734 7.20245 122.027 7.01975L123.025 6.39663ZM63.7348 5.58881C63.6455 5.82019 63.423 5.97279 63.175 5.97279H58.0529C57.7215 5.97279 57.4529 6.24141 57.4529 6.57279V10.0469C57.4529 10.0619 57.4534 10.0768 57.4545 10.0915V13.6659C57.4534 13.6806 57.4529 13.6955 57.4529 13.7104V17.814C57.4529 18.1454 57.7215 18.414 58.0529 18.414H63.6626C64.084 18.414 64.3741 18.837 64.2224 19.2301L63.7348 20.4936C63.6455 20.725 63.423 20.8776 63.175 20.8776H55.5651C55.2337 20.8776 54.9651 20.6089 54.9651 20.2776V4.10928C54.9651 3.77791 55.2337 3.50928 55.5651 3.50928H63.6626C64.084 3.50928 64.3741 3.9322 64.2224 4.32531L63.7348 5.58881ZM58.5924 13.1104H62.9828C63.2309 13.1104 63.4533 12.9579 63.5426 12.7265L64.0302 11.463C64.1819 11.0699 63.8918 10.6469 63.4705 10.6469H58.5924V13.1104ZM34.2711 20.8776C33.8944 20.8776 33.6109 20.5345 33.6818 20.1646L36.6618 4.61709C36.7718 4.04335 37.5535 3.94912 37.7966 4.48028L42.1381 13.9634C42.3503 14.4269 43.0073 14.4313 43.2258 13.9707L47.7239 4.48538C47.9749 3.95606 48.7579 4.06332 48.8573 4.64064L51.5326 20.1757C51.5958 20.5424 51.3134 20.8776 50.9413 20.8776H49.6131C49.3184 20.8776 49.0673 20.6636 49.0206 20.3726L47.8141 12.8529C47.721 12.2726 46.9357 12.1583 46.6809 12.6878L43.1802 19.9662C42.9608 20.4224 42.3099 20.4186 42.0958 19.9599L38.6921 12.668C38.4443 12.1372 37.6607 12.2397 37.5577 12.8163L36.2066 20.383C36.1555 20.6692 35.9067 20.8776 35.616 20.8776H34.2711ZM72.6633 6.57279C72.6633 6.24141 72.9319 5.97279 73.2633 5.97279H76.0314C76.2794 5.97279 76.5019 5.82019 76.5912 5.58881L77.0788 4.32531C77.2305 3.93221 76.9404 3.50928 76.519 3.50928H66.33C66.0778 3.50928 65.8524 3.66708 65.7662 3.90416L65.3065 5.16766C65.1642 5.55898 65.454 5.97279 65.8704 5.97279H69.5756C69.9069 5.97279 70.1756 6.24142 70.1756 6.57279V20.2776C70.1756 20.6089 70.4442 20.8776 70.7756 20.8776H72.0633C72.3947 20.8776 72.6633 20.6089 72.6633 20.2776V6.57279ZM87.4387 17.0316C87.3464 16.8063 87.1271 16.6592 86.8836 16.6592H83.7573H81.4658L82.5504 14.1957H85.3411C85.7772 14.1957 86.0676 13.7452 85.8876 13.348L84.3061 9.85849C84.0928 9.3879 83.4241 9.38897 83.2123 9.86024L81.6443 13.3498C81.6152 13.4147 81.5985 13.4809 81.593 13.5464L79.3206 18.7076L79.3341 18.7136L78.549 20.5171C78.4537 20.736 78.2376 20.8776 77.9989 20.8776H76.6451C76.2084 20.8776 75.918 20.426 76.0992 20.0286L83.3136 4.20603C83.5286 3.73447 84.2001 3.73897 84.4088 4.21338L91.3682 20.036C91.5427 20.4325 91.2522 20.8776 90.819 20.8776H89.4182C89.1748 20.8776 88.9554 20.7304 88.8631 20.5052L87.4387 17.0316ZM93.2999 3.88761C93.2091 3.6592 92.9882 3.50928 92.7424 3.50928H91.3125C90.8881 3.50928 90.5979 3.9377 90.7552 4.33176L97.1045 20.2341C97.3046 20.7353 98.013 20.7381 98.2171 20.2386L104.716 4.33627C104.878 3.94157 104.587 3.50928 104.161 3.50928H102.737C102.492 3.50928 102.272 3.65794 102.18 3.88493L98.269 13.5867C98.0665 14.0889 97.355 14.0871 97.1549 13.584L93.2999 3.88761ZM109.313 3.50928C109.645 3.50928 109.913 3.77791 109.913 4.10928V20.2776C109.913 20.6089 109.645 20.8776 109.313 20.8776H108.025C107.694 20.8776 107.425 20.6089 107.425 20.2776V4.10928C107.425 3.77791 107.694 3.50928 108.025 3.50928H109.313ZM129.131 3.50928C129.463 3.50928 129.731 3.77791 129.731 4.10928V20.2776C129.731 20.6089 129.463 20.8776 129.131 20.8776H127.844C127.512 20.8776 127.244 20.6089 127.244 20.2776V4.10928C127.244 3.77791 127.512 3.50928 127.844 3.50928H129.131ZM151.077 20.2776C151.077 20.6089 151.345 20.8776 151.677 20.8776H152.964C153.296 20.8776 153.564 20.6089 153.564 20.2776V10.8291C153.564 10.2819 154.237 10.0203 154.607 10.4237L163.594 20.2288C163.963 20.6322 164.636 20.3706 164.636 19.8234V17.7275L161.161 13.9235C161.142 13.907 161.123 13.889 161.105 13.8694L152.119 4.0381C151.75 3.63388 151.077 3.89527 151.077 4.4429V20.2776ZM164.636 4.10928V16.0403L162.148 13.3169V4.10928C162.148 3.77791 162.417 3.50928 162.748 3.50928H164.036C164.367 3.50928 164.636 3.77791 164.636 4.10928Z" fill="black"/>
<path d="M123.217 5.60873L123.301 5.55479V5.55478L123.217 5.60873ZM123.025 6.39663L122.972 6.3118V6.3118L123.025 6.39663ZM115.519 4.49918L115.587 4.57253L115.588 4.57224L115.519 4.49918ZM117.484 12.1822L117.443 12.2735L117.444 12.2738L117.484 12.1822ZM119.075 12.8796L119.116 12.7885L119.115 12.788L119.075 12.8796ZM120.143 13.4758L120.085 13.5576L120.087 13.5586L120.143 13.4758ZM120.869 14.1395L120.789 14.2006L120.792 14.2032L120.869 14.1395ZM121.285 14.9156L121.189 14.9444L121.19 14.9473L121.285 14.9156ZM120.655 17.9191L120.582 17.8508L120.655 17.9191ZM116.48 17.6154L116.563 17.5589L116.561 17.5564L116.48 17.6154ZM115.977 16.1686L115.879 16.186L115.977 16.1686ZM115.225 15.6531L115.248 15.7505L115.225 15.6531ZM113.898 15.9613L113.875 15.8639L113.898 15.9613ZM113.454 16.6271L113.356 16.6467V16.6467L113.454 16.6271ZM115.082 19.8539L115.012 19.9256L115.013 19.9261L115.082 19.8539ZM122.417 19.6177L122.345 19.5481L122.345 19.5481L122.417 19.6177ZM123.004 12.6434L122.924 12.7034L122.924 12.7038L123.004 12.6434ZM120.068 10.5511L120.028 10.6429L120.029 10.6431L120.068 10.5511ZM118.424 9.8424L118.384 9.93418L118.384 9.93423L118.424 9.8424ZM117.313 6.26526L117.38 6.34L117.38 6.33939L117.313 6.26526ZM120.41 6.00653L120.354 6.08952L120.357 6.09173L120.41 6.00653ZM121.161 6.81147L121.244 6.75593V6.75593L121.161 6.81147ZM122.027 7.01975L121.974 6.93493L121.974 6.93493L122.027 7.01975ZM63.7348 5.58881L63.6415 5.55281V5.55281L63.7348 5.58881ZM57.4545 10.0915H57.5548L57.5542 10.0842L57.4545 10.0915ZM57.4545 13.6659L57.5545 13.6732V13.6659H57.4545ZM64.2224 19.2301L64.1291 19.1941L64.2224 19.2301ZM63.7348 20.4936L63.6415 20.4576V20.4576L63.7348 20.4936ZM64.2224 4.32531L64.1291 4.2893L64.2224 4.32531ZM58.5924 13.1104H58.4924V13.2104H58.5924V13.1104ZM63.5426 12.7265L63.6359 12.7625V12.7625L63.5426 12.7265ZM64.0302 11.463L64.1235 11.499L64.0302 11.463ZM58.5924 10.6469V10.5469H58.4924V10.6469H58.5924ZM33.6818 20.1646L33.78 20.1834L33.6818 20.1646ZM36.6618 4.61709L36.5636 4.59826L36.6618 4.61709ZM37.7966 4.48028L37.7057 4.5219V4.5219L37.7966 4.48028ZM42.1381 13.9634L42.0472 14.005L42.1381 13.9634ZM43.2258 13.9707L43.3161 14.0136L43.2258 13.9707ZM47.7239 4.48538L47.8143 4.52823L47.7239 4.48538ZM48.8573 4.64064L48.7588 4.65761V4.65761L48.8573 4.64064ZM51.5326 20.1757L51.6312 20.1588L51.5326 20.1757ZM49.0206 20.3726L49.1194 20.3568L49.0206 20.3726ZM47.8141 12.8529L47.9128 12.837L47.8141 12.8529ZM46.6809 12.6878L46.5908 12.6445L46.6809 12.6878ZM43.1802 19.9662L43.2703 20.0095L43.1802 19.9662ZM42.0958 19.9599L42.1864 19.9176L42.0958 19.9599ZM38.6921 12.668L38.7827 12.6257L38.6921 12.668ZM37.5577 12.8163L37.4593 12.7988V12.7988L37.5577 12.8163ZM36.2066 20.383L36.3051 20.4006L36.2066 20.383ZM76.5912 5.58881L76.4979 5.55281V5.55281L76.5912 5.58881ZM77.0788 4.32531L77.1721 4.36131V4.36131L77.0788 4.32531ZM65.7662 3.90416L65.6722 3.86997V3.86997L65.7662 3.90416ZM65.3065 5.16766L65.2125 5.13347V5.13347L65.3065 5.16766ZM87.4387 17.0316L87.3462 17.0695L87.4387 17.0316ZM81.4658 16.6592L81.3743 16.6189L81.3125 16.7592H81.4658V16.6592ZM82.5504 14.1957V14.0957H82.4852L82.4589 14.1554L82.5504 14.1957ZM85.8876 13.348L85.9787 13.3068L85.8876 13.348ZM84.3061 9.85849L84.215 9.89977V9.89977L84.3061 9.85849ZM83.2123 9.86024L83.1211 9.81925V9.81925L83.2123 9.86024ZM81.6443 13.3498L81.5531 13.3088V13.3088L81.6443 13.3498ZM81.593 13.5464L81.6845 13.5866L81.6912 13.5714L81.6926 13.5548L81.593 13.5464ZM79.3206 18.7076L79.229 18.6673L79.1887 18.7588L79.2803 18.7991L79.3206 18.7076ZM79.3341 18.7136L79.4258 18.7535L79.4656 18.6622L79.3744 18.6221L79.3341 18.7136ZM78.549 20.5171L78.4573 20.4771L78.4573 20.4771L78.549 20.5171ZM76.0992 20.0286L76.1902 20.0701L76.0992 20.0286ZM83.3136 4.20603L83.2226 4.16454V4.16454L83.3136 4.20603ZM84.4088 4.21338L84.5003 4.17312V4.17312L84.4088 4.21338ZM91.3682 20.036L91.2767 20.0762L91.3682 20.036ZM88.8631 20.5052L88.7705 20.5431L88.8631 20.5052ZM93.2999 3.88761L93.207 3.92456V3.92456L93.2999 3.88761ZM90.7552 4.33176L90.8481 4.29468V4.29468L90.7552 4.33176ZM97.1045 20.2341L97.0116 20.2712L97.1045 20.2341ZM98.2171 20.2386L98.1246 20.2008L98.2171 20.2386ZM104.716 4.33627L104.809 4.37411V4.37411L104.716 4.33627ZM102.18 3.88493L102.273 3.92232V3.92232L102.18 3.88493ZM98.269 13.5867L98.3617 13.6241V13.6241L98.269 13.5867ZM97.1549 13.584L97.062 13.621L97.1549 13.584ZM154.607 10.4237L154.68 10.3561L154.68 10.3561L154.607 10.4237ZM163.594 20.2288L163.52 20.2964L163.594 20.2288ZM164.636 17.7275H164.736V17.6887L164.71 17.6601L164.636 17.7275ZM161.161 13.9235L161.235 13.8555L161.226 13.8476L161.161 13.9235ZM161.105 13.8694L161.179 13.8019L161.179 13.8019L161.105 13.8694ZM152.119 4.0381L152.193 3.97064V3.97064L152.119 4.0381ZM164.636 16.0403L164.562 16.1077L164.736 16.298V16.0403H164.636ZM162.148 13.3169H162.048V13.3557L162.074 13.3844L162.148 13.3169ZM123.133 5.66268C123.272 5.8798 123.199 6.1704 122.972 6.3118L123.078 6.48145C123.391 6.28597 123.505 5.87329 123.301 5.55479L123.133 5.66268ZM119.054 3.27181C120.75 3.27181 122.108 4.06295 123.133 5.66268L123.301 5.55478C122.244 3.90529 120.827 3.07181 119.054 3.07181V3.27181ZM115.588 4.57224C116.514 3.70622 117.667 3.27181 119.054 3.27181V3.07181C117.621 3.07181 116.418 3.52232 115.451 4.42613L115.588 4.57224ZM114.199 7.77261C114.199 6.49523 114.661 5.43078 115.587 4.57253L115.451 4.42584C114.484 5.32241 113.999 6.44024 113.999 7.77261H114.199ZM117.525 12.0908C116.407 11.593 115.576 10.9833 115.025 10.2652C114.475 9.54856 114.199 8.71904 114.199 7.77261H113.999C113.999 8.76098 114.288 9.63379 114.866 10.387C115.443 11.1388 116.305 11.7665 117.443 12.2735L117.525 12.0908ZM119.115 12.788L117.524 12.0906L117.444 12.2738L119.035 12.9712L119.115 12.788ZM120.2 13.394C119.895 13.1797 119.533 12.978 119.116 12.7885L119.034 12.9706C119.442 13.1562 119.792 13.3519 120.085 13.5576L120.2 13.394ZM120.948 14.0784C120.755 13.8286 120.505 13.6003 120.199 13.393L120.087 13.5586C120.378 13.7562 120.612 13.9704 120.789 14.2005L120.948 14.0784ZM121.381 14.8869C121.292 14.589 121.146 14.3184 120.946 14.0758L120.792 14.2032C120.975 14.4255 121.108 14.6724 121.189 14.9444L121.381 14.8869ZM121.524 15.8381C121.524 15.4915 121.476 15.1731 121.38 14.884L121.19 14.9473C121.279 15.2131 121.324 15.5097 121.324 15.8381H121.524ZM120.728 17.9874C121.26 17.4192 121.524 16.7001 121.524 15.8381H121.324C121.324 16.6559 121.075 17.3241 120.582 17.8508L120.728 17.9874ZM118.723 18.8403C119.525 18.8403 120.196 18.5559 120.728 17.9874L120.582 17.8508C120.089 18.3772 119.472 18.6403 118.723 18.6403V18.8403ZM116.398 17.6718C116.931 18.4515 117.71 18.8403 118.723 18.8403V18.6403C117.77 18.6403 117.055 18.2791 116.563 17.559L116.398 17.6718ZM115.879 16.186C115.997 16.8569 116.168 17.3575 116.4 17.6743L116.561 17.5564C116.357 17.277 116.193 16.8131 116.076 16.1512L115.879 16.186ZM115.248 15.7505C115.538 15.6833 115.825 15.8843 115.879 16.186L116.076 16.1512C116.004 15.7457 115.613 15.4605 115.203 15.5557L115.248 15.7505ZM113.92 16.0588L115.248 15.7505L115.203 15.5557L113.875 15.8639L113.92 16.0588ZM113.552 16.6075C113.503 16.3593 113.666 16.1177 113.92 16.0588L113.875 15.8639C113.523 15.9456 113.284 16.2853 113.356 16.6467L113.552 16.6075ZM115.151 19.7822C114.356 19.0089 113.821 17.953 113.552 16.6075L113.356 16.6467C113.631 18.0229 114.181 19.1183 115.012 19.9256L115.151 19.7822ZM118.626 21.0925C117.218 21.0925 116.063 20.6543 115.151 19.7817L115.013 19.9261C115.966 20.8384 117.173 21.2925 118.626 21.2925V21.0925ZM122.345 19.5481C121.347 20.5779 120.109 21.0925 118.626 21.0925V21.2925C120.162 21.2925 121.451 20.7573 122.489 19.6873L122.345 19.5481ZM123.833 15.6581C123.833 17.2323 123.336 18.5263 122.345 19.5481L122.489 19.6873C123.519 18.6243 124.033 17.2786 124.033 15.6581H123.833ZM122.924 12.7038C123.528 13.5011 123.833 14.4838 123.833 15.6581H124.033C124.033 14.4476 123.718 13.4205 123.084 12.583L122.924 12.7038ZM120.029 10.6431C121.357 11.2088 122.319 11.8972 122.924 12.7034L123.084 12.5833C122.451 11.7398 121.455 11.0332 120.107 10.4591L120.029 10.6431ZM118.384 9.93423L120.028 10.6429L120.107 10.4592L118.463 9.75057L118.384 9.93423ZM116.53 7.7951C116.53 8.70207 117.174 9.41055 118.384 9.93418L118.463 9.75062C117.282 9.23936 116.73 8.58297 116.73 7.7951H116.53ZM117.247 6.19052C116.77 6.61465 116.53 7.15189 116.53 7.7951H116.73C116.73 7.20844 116.946 6.72579 117.38 6.34L117.247 6.19052ZM119.032 5.54657C118.32 5.54657 117.722 5.75993 117.246 6.19113L117.38 6.33939C117.815 5.94566 118.363 5.74657 119.032 5.74657V5.54657ZM120.465 5.92362C120.089 5.66953 119.608 5.54657 119.032 5.54657V5.74657C119.581 5.74657 120.019 5.86359 120.354 6.08945L120.465 5.92362ZM121.244 6.75593C120.981 6.36254 120.721 6.08066 120.462 5.92134L120.357 6.09173C120.581 6.22925 120.822 6.48399 121.078 6.86701L121.244 6.75593ZM121.974 6.93493C121.733 7.0858 121.409 7.0031 121.244 6.75593L121.078 6.86701C121.296 7.1936 121.736 7.3191 122.08 7.10458L121.974 6.93493ZM122.972 6.3118L121.974 6.93493L122.08 7.10458L123.078 6.48145L122.972 6.3118ZM63.175 6.07279C63.4644 6.07279 63.7239 5.89476 63.8281 5.62481L63.6415 5.55281C63.5671 5.74562 63.3817 5.87279 63.175 5.87279V6.07279ZM58.0529 6.07279H63.175V5.87279H58.0529V6.07279ZM57.5529 6.57279C57.5529 6.29664 57.7767 6.07279 58.0529 6.07279V5.87279C57.6663 5.87279 57.3529 6.18619 57.3529 6.57279H57.5529ZM57.5529 10.0469V6.57279H57.3529V10.0469H57.5529ZM57.5542 10.0842C57.5533 10.0719 57.5529 10.0595 57.5529 10.0469H57.3529C57.3529 10.0644 57.3535 10.0817 57.3548 10.0988L57.5542 10.0842ZM57.5545 13.6659V10.0915H57.3545V13.6659H57.5545ZM57.5529 13.7104C57.5529 13.6979 57.5533 13.6855 57.5542 13.6732L57.3548 13.6586C57.3535 13.6757 57.3529 13.693 57.3529 13.7104H57.5529ZM57.5529 17.814V13.7104H57.3529V17.814H57.5529ZM58.0529 18.314C57.7767 18.314 57.5529 18.0902 57.5529 17.814H57.3529C57.3529 18.2006 57.6663 18.514 58.0529 18.514V18.314ZM63.6626 18.314H58.0529V18.514H63.6626V18.314ZM64.3157 19.2661C64.4927 18.8075 64.1542 18.314 63.6626 18.314V18.514C64.0138 18.514 64.2555 18.8665 64.1291 19.1941L64.3157 19.2661ZM63.8281 20.5296L64.3157 19.2661L64.1291 19.1941L63.6415 20.4576L63.8281 20.5296ZM63.175 20.9776C63.4644 20.9776 63.7239 20.7995 63.8281 20.5296L63.6415 20.4576C63.5671 20.6504 63.3817 20.7776 63.175 20.7776V20.9776ZM55.5651 20.9776H63.175V20.7776H55.5651V20.9776ZM54.8651 20.2776C54.8651 20.6642 55.1785 20.9776 55.5651 20.9776V20.7776C55.289 20.7776 55.0651 20.5537 55.0651 20.2776H54.8651ZM54.8651 4.10928V20.2776H55.0651V4.10928H54.8651ZM55.5651 3.40928C55.1785 3.40928 54.8651 3.72268 54.8651 4.10928H55.0651C55.0651 3.83314 55.289 3.60928 55.5651 3.60928V3.40928ZM63.6626 3.40928H55.5651V3.60928H63.6626V3.40928ZM64.3157 4.36131C64.4927 3.90269 64.1542 3.40928 63.6626 3.40928V3.60928C64.0138 3.60928 64.2555 3.96172 64.1291 4.2893L64.3157 4.36131ZM63.8281 5.62481L64.3157 4.36131L64.1291 4.2893L63.6415 5.55281L63.8281 5.62481ZM58.5924 13.2104H62.9828V13.0104H58.5924V13.2104ZM62.9828 13.2104C63.2722 13.2104 63.5317 13.0324 63.6359 12.7625L63.4493 12.6905C63.3749 12.8833 63.1895 13.0104 62.9828 13.0104V13.2104ZM63.6359 12.7625L64.1235 11.499L63.9369 11.427L63.4493 12.6905L63.6359 12.7625ZM64.1235 11.499C64.3005 11.0404 63.962 10.5469 63.4705 10.5469V10.7469C63.8216 10.7469 64.0634 11.0994 63.9369 11.427L64.1235 11.499ZM63.4705 10.5469H58.5924V10.7469H63.4705V10.5469ZM58.4924 10.6469V13.1104H58.6924V10.6469H58.4924ZM33.5836 20.1458C33.5009 20.5774 33.8316 20.9776 34.2711 20.9776V20.7776C33.9572 20.7776 33.7209 20.4917 33.78 20.1834L33.5836 20.1458ZM36.5636 4.59826L33.5836 20.1458L33.78 20.1834L36.76 4.63591L36.5636 4.59826ZM37.8876 4.43865C37.6039 3.81896 36.6919 3.92891 36.5636 4.59826L36.76 4.63591C36.8517 4.1578 37.5031 4.07927 37.7057 4.5219L37.8876 4.43865ZM42.229 13.9217L37.8876 4.43865L37.7057 4.5219L42.0472 14.005L42.229 13.9217ZM43.1354 13.9279C42.9534 14.3117 42.4059 14.308 42.229 13.9217L42.0472 14.005C42.2947 14.5458 43.0613 14.551 43.3161 14.0136L43.1354 13.9279ZM47.6336 4.44253L43.1354 13.9279L43.3161 14.0136L47.8143 4.52823L47.6336 4.44253ZM48.9559 4.62367C48.8399 3.95013 47.9264 3.82499 47.6336 4.44253L47.8143 4.52823C48.0234 4.08713 48.6759 4.17651 48.7588 4.65761L48.9559 4.62367ZM51.6312 20.1588L48.9559 4.62367L48.7588 4.65761L51.4341 20.1927L51.6312 20.1588ZM50.9413 20.9776C51.3754 20.9776 51.7048 20.5865 51.6312 20.1588L51.4341 20.1927C51.4867 20.4983 51.2514 20.7776 50.9413 20.7776V20.9776ZM49.6131 20.9776H50.9413V20.7776H49.6131V20.9776ZM48.9219 20.3885C48.9764 20.7279 49.2693 20.9776 49.6131 20.9776V20.7776C49.3675 20.7776 49.1583 20.5992 49.1194 20.3568L48.9219 20.3885ZM47.7153 12.8687L48.9219 20.3885L49.1194 20.3568L47.9128 12.837L47.7153 12.8687ZM46.7711 12.7312C46.9833 12.2899 47.6378 12.3852 47.7153 12.8687L47.9128 12.837C47.8042 12.1601 46.888 12.0267 46.5908 12.6445L46.7711 12.7312ZM43.2703 20.0095L46.7711 12.7312L46.5908 12.6445L43.0901 19.9229L43.2703 20.0095ZM42.0052 20.0022C42.255 20.5373 43.0143 20.5417 43.2703 20.0095L43.0901 19.9229C42.9072 20.303 42.3648 20.2998 42.1864 19.9176L42.0052 20.0022ZM38.6014 12.7103L42.0052 20.0022L42.1864 19.9176L38.7827 12.6257L38.6014 12.7103ZM37.6562 12.8339C37.742 12.3534 38.395 12.268 38.6014 12.7103L38.7827 12.6257C38.4936 12.0064 37.5794 12.126 37.4593 12.7988L37.6562 12.8339ZM36.3051 20.4006L37.6562 12.8339L37.4593 12.7988L36.1082 20.3654L36.3051 20.4006ZM35.616 20.9776C35.9551 20.9776 36.2455 20.7344 36.3051 20.4006L36.1082 20.3654C36.0656 20.6039 35.8582 20.7776 35.616 20.7776V20.9776ZM34.2711 20.9776H35.616V20.7776H34.2711V20.9776ZM73.2633 5.87279C72.8767 5.87279 72.5633 6.18619 72.5633 6.57279H72.7633C72.7633 6.29664 72.9872 6.07279 73.2633 6.07279V5.87279ZM76.0314 5.87279H73.2633V6.07279H76.0314V5.87279ZM76.4979 5.55281C76.4235 5.74562 76.2381 5.87279 76.0314 5.87279V6.07279C76.3208 6.07279 76.5803 5.89476 76.6845 5.62481L76.4979 5.55281ZM76.9855 4.2893L76.4979 5.55281L76.6845 5.62482L77.1721 4.36131L76.9855 4.2893ZM76.519 3.60928C76.8702 3.60928 77.1119 3.96172 76.9855 4.2893L77.1721 4.36131C77.3491 3.90269 77.0106 3.40928 76.519 3.40928V3.60928ZM66.33 3.60928H76.519V3.40928H66.33V3.60928ZM65.8602 3.93834C65.932 3.74078 66.1198 3.60928 66.33 3.60928V3.40928C66.0357 3.40928 65.7728 3.59338 65.6722 3.86997L65.8602 3.93834ZM65.4005 5.20185L65.8602 3.93834L65.6722 3.86997L65.2125 5.13347L65.4005 5.20185ZM65.8704 5.87279C65.5234 5.87279 65.2819 5.52795 65.4005 5.20185L65.2125 5.13347C65.0465 5.59002 65.3846 6.07279 65.8704 6.07279V5.87279ZM69.5756 5.87279H65.8704V6.07279H69.5756V5.87279ZM70.2756 6.57279C70.2756 6.18619 69.9622 5.87279 69.5756 5.87279V6.07279C69.8517 6.07279 70.0756 6.29664 70.0756 6.57279H70.2756ZM70.2756 20.2776V6.57279H70.0756V20.2776H70.2756ZM70.7756 20.7776C70.4994 20.7776 70.2756 20.5537 70.2756 20.2776H70.0756C70.0756 20.6642 70.389 20.9776 70.7756 20.9776V20.7776ZM72.0633 20.7776H70.7756V20.9776H72.0633V20.7776ZM72.5633 20.2776C72.5633 20.5537 72.3395 20.7776 72.0633 20.7776V20.9776C72.4499 20.9776 72.7633 20.6642 72.7633 20.2776H72.5633ZM72.5633 6.57279V20.2776H72.7633V6.57279H72.5633ZM86.8836 16.7592C87.0865 16.7592 87.2693 16.8818 87.3462 17.0695L87.5313 16.9937C87.4235 16.7309 87.1676 16.5592 86.8836 16.5592V16.7592ZM83.7573 16.7592H86.8836V16.5592H83.7573V16.7592ZM81.4658 16.7592H83.7573V16.5592H81.4658V16.7592ZM82.4589 14.1554L81.3743 16.6189L81.5573 16.6995L82.642 14.236L82.4589 14.1554ZM85.3411 14.0957H82.5504V14.2957H85.3411V14.0957ZM85.7965 13.3893C85.9465 13.7203 85.7045 14.0957 85.3411 14.0957V14.2957C85.8498 14.2957 86.1887 13.7702 85.9787 13.3068L85.7965 13.3893ZM84.215 9.89977L85.7965 13.3893L85.9787 13.3068L84.3972 9.81722L84.215 9.89977ZM83.3035 9.90123C83.48 9.5085 84.0373 9.50761 84.215 9.89977L84.3972 9.81722C84.1484 9.26819 83.3682 9.26943 83.1211 9.81925L83.3035 9.90123ZM81.7355 13.3908L83.3035 9.90123L83.1211 9.81925L81.5531 13.3088L81.7355 13.3908ZM81.6926 13.5548C81.6972 13.5005 81.711 13.4453 81.7355 13.3908L81.5531 13.3088C81.5193 13.384 81.4998 13.4613 81.4934 13.5379L81.6926 13.5548ZM79.4121 18.7479L81.6845 13.5866L81.5015 13.5061L79.229 18.6673L79.4121 18.7479ZM79.3744 18.6221L79.3608 18.6161L79.2803 18.7991L79.2938 18.8051L79.3744 18.6221ZM78.6407 20.557L79.4258 18.7535L79.2425 18.6737L78.4573 20.4771L78.6407 20.557ZM77.9989 20.9776C78.2774 20.9776 78.5295 20.8124 78.6407 20.557L78.4573 20.4771C78.3779 20.6596 78.1978 20.7776 77.9989 20.7776V20.9776ZM76.6451 20.9776H77.9989V20.7776H76.6451V20.9776ZM76.0082 19.9871C75.7968 20.4507 76.1357 20.9776 76.6451 20.9776V20.7776C76.2812 20.7776 76.0392 20.4012 76.1902 20.0701L76.0082 19.9871ZM83.2226 4.16454L76.0082 19.9871L76.1902 20.0701L83.4046 4.24752L83.2226 4.16454ZM84.5003 4.17312C84.2569 3.61964 83.4735 3.61438 83.2226 4.16454L83.4046 4.24752C83.5838 3.85455 84.1433 3.8583 84.3172 4.25364L84.5003 4.17312ZM91.4598 19.9957L84.5003 4.17312L84.3172 4.25364L91.2767 20.0762L91.4598 19.9957ZM90.819 20.9776C91.3244 20.9776 91.6633 20.4583 91.4598 19.9957L91.2767 20.0762C91.4221 20.4067 91.18 20.7776 90.819 20.7776V20.9776ZM89.4182 20.9776H90.819V20.7776H89.4182V20.9776ZM88.7705 20.5431C88.8783 20.8059 89.1342 20.9776 89.4182 20.9776V20.7776C89.2153 20.7776 89.0326 20.655 88.9556 20.4672L88.7705 20.5431ZM87.3462 17.0695L88.7705 20.5431L88.9556 20.4672L87.5313 16.9937L87.3462 17.0695ZM92.7424 3.60928C92.9472 3.60928 93.1313 3.73422 93.207 3.92456L93.3928 3.85067C93.2869 3.58419 93.0291 3.40928 92.7424 3.40928V3.60928ZM91.3125 3.60928H92.7424V3.40928H91.3125V3.60928ZM90.8481 4.29468C90.717 3.96629 90.9589 3.60928 91.3125 3.60928V3.40928C90.8174 3.40928 90.4788 3.9091 90.6624 4.36884L90.8481 4.29468ZM97.1974 20.197L90.8481 4.29468L90.6624 4.36884L97.0116 20.2712L97.1974 20.197ZM98.1246 20.2008C97.9544 20.6171 97.3641 20.6147 97.1974 20.197L97.0116 20.2712C97.2451 20.8559 98.0715 20.8592 98.3097 20.2764L98.1246 20.2008ZM104.624 4.29844L98.1246 20.2008L98.3097 20.2764L104.809 4.37411L104.624 4.29844ZM104.161 3.60928C104.516 3.60928 104.758 3.96952 104.624 4.29844L104.809 4.37411C104.997 3.91362 104.659 3.40928 104.161 3.40928V3.60928ZM102.737 3.60928H104.161V3.40928H102.737V3.60928ZM102.273 3.92232C102.349 3.73316 102.533 3.60928 102.737 3.60928V3.40928C102.451 3.40928 102.194 3.58271 102.088 3.84754L102.273 3.92232ZM98.3617 13.6241L102.273 3.92232L102.088 3.84754L98.1762 13.5493L98.3617 13.6241ZM97.062 13.621C97.2954 14.2079 98.1255 14.2099 98.3617 13.6241L98.1762 13.5493C98.0075 13.9678 97.4146 13.9663 97.2479 13.5471L97.062 13.621ZM93.207 3.92456L97.062 13.621L97.2479 13.5471L93.3928 3.85067L93.207 3.92456ZM110.013 4.10928C110.013 3.72268 109.7 3.40928 109.313 3.40928V3.60928C109.589 3.60928 109.813 3.83314 109.813 4.10928H110.013ZM110.013 20.2776V4.10928H109.813V20.2776H110.013ZM109.313 20.9776C109.7 20.9776 110.013 20.6642 110.013 20.2776H109.813C109.813 20.5537 109.589 20.7776 109.313 20.7776V20.9776ZM108.025 20.9776H109.313V20.7776H108.025V20.9776ZM107.325 20.2776C107.325 20.6642 107.639 20.9776 108.025 20.9776V20.7776C107.749 20.7776 107.525 20.5537 107.525 20.2776H107.325ZM107.325 4.10928V20.2776H107.525V4.10928H107.325ZM108.025 3.40928C107.639 3.40928 107.325 3.72268 107.325 4.10928H107.525C107.525 3.83314 107.749 3.60928 108.025 3.60928V3.40928ZM109.313 3.40928H108.025V3.60928H109.313V3.40928ZM129.831 4.10928C129.831 3.72268 129.518 3.40928 129.131 3.40928V3.60928C129.407 3.60928 129.631 3.83314 129.631 4.10928H129.831ZM129.831 20.2776V4.10928H129.631V20.2776H129.831ZM129.131 20.9776C129.518 20.9776 129.831 20.6642 129.831 20.2776H129.631C129.631 20.5537 129.407 20.7776 129.131 20.7776V20.9776ZM127.844 20.9776H129.131V20.7776H127.844V20.9776ZM127.144 20.2776C127.144 20.6642 127.457 20.9776 127.844 20.9776V20.7776C127.567 20.7776 127.344 20.5537 127.344 20.2776H127.144ZM127.144 4.10928V20.2776H127.344V4.10928H127.144ZM127.844 3.40928C127.457 3.40928 127.144 3.72268 127.144 4.10928H127.344C127.344 3.83314 127.567 3.60928 127.844 3.60928V3.40928ZM129.131 3.40928H127.844V3.60928H129.131V3.40928ZM151.677 20.7776C151.4 20.7776 151.177 20.5537 151.177 20.2776H150.977C150.977 20.6642 151.29 20.9776 151.677 20.9776V20.7776ZM152.964 20.7776H151.677V20.9776H152.964V20.7776ZM153.464 20.2776C153.464 20.5537 153.24 20.7776 152.964 20.7776V20.9776C153.351 20.9776 153.664 20.6642 153.664 20.2776H153.464ZM153.464 10.8291V20.2776H153.664V10.8291H153.464ZM154.68 10.3561C154.249 9.88546 153.464 10.1907 153.464 10.8291H153.664C153.664 10.3731 154.225 10.1551 154.533 10.4912L154.68 10.3561ZM163.667 20.1612L154.68 10.3561L154.533 10.4912L163.52 20.2964L163.667 20.1612ZM164.536 19.8234C164.536 20.2794 163.975 20.4974 163.667 20.1612L163.52 20.2964C163.951 20.767 164.736 20.4618 164.736 19.8234H164.536ZM164.536 17.7275V19.8234H164.736V17.7275H164.536ZM161.087 13.9909L164.562 17.795L164.71 17.6601L161.235 13.856L161.087 13.9909ZM161.031 13.9368C161.052 13.9594 161.074 13.9802 161.096 13.9994L161.226 13.8476C161.21 13.8338 161.194 13.8186 161.179 13.8019L161.031 13.9368ZM152.046 4.10557L161.031 13.9368L161.179 13.8019L152.193 3.97064L152.046 4.10557ZM151.177 4.4429C151.177 3.98654 151.738 3.76872 152.046 4.10557L152.193 3.97064C151.762 3.49905 150.977 3.80399 150.977 4.4429H151.177ZM151.177 20.2776V4.4429H150.977V20.2776H151.177ZM164.736 16.0403V4.10928H164.536V16.0403H164.736ZM162.074 13.3844L164.562 16.1077L164.71 15.9729L162.222 13.2495L162.074 13.3844ZM162.048 4.10928V13.3169H162.248V4.10928H162.048ZM162.748 3.40928C162.362 3.40928 162.048 3.72268 162.048 4.10928H162.248C162.248 3.83314 162.472 3.60928 162.748 3.60928V3.40928ZM164.036 3.40928H162.748V3.60928H164.036V3.40928ZM164.736 4.10928C164.736 3.72268 164.423 3.40928 164.036 3.40928V3.60928C164.312 3.60928 164.536 3.83314 164.536 4.10928H164.736Z" fill="black"/>
<path d="M1 0L10.1817 3.24058V20.5237L1 23.7642V0Z" fill="black"/>
<path d="M12.3418 0L18.2829 3.24058V20.5237L12.3418 23.7642V0Z" fill="black"/>
<path d="M20.4434 0L24.224 3.24058V20.5237L20.4434 23.7642V0Z" fill="black"/>
</svg>
